<?xml version="1.0" standalone="no"?>
<!DOCTYPE svg PUBLIC "-//W3C//DTD SVG 20010904//EN"
 "http://www.w3.org/TR/2001/REC-SVG-20010904/DTD/svg10.dtd">
<svg version="1.0" xmlns="http://www.w3.org/2000/svg"
 width="100pt" height="100pt" viewBox="0 0 512.000000 512.000000"
 preserveAspectRatio="xMidYMid meet">

<g transform="translate(0.000000,512.000000) scale(0.100000,-0.100000)"
fill="#f8f8f8" stroke="none" >
<path d="M2145 5109 c-481 -50 -962 -286 -1295 -635 -379 -396 -582 -904 -582
-1449 0 -355 61 -606 237 -977 293 -615 433 -1163 453 -1776 l7 -214 33 -29
32 -29 1081 0 1081 0 34 34 34 34 0 380 0 381 338 3 c319 4 340 5 397 26 130
48 252 157 309 275 51 105 56 146 56 484 l0 313 219 0 218 0 27 26 c25 26 31
46 26 89 -1 11 -89 238 -196 505 l-195 485 -9 127 c-31 425 -171 799 -424
1133 -122 161 -330 357 -501 472 -399 267 -901 392 -1380 342z m413 -200 c645
-70 1213 -468 1502 -1054 110 -224 172 -456 190 -713 l11 -147 169 -425 c94
-234 170 -429 170 -433 0 -4 -74 -7 -164 -7 -191 0 -217 -4 -250 -37 l-25 -25
-3 -391 c-3 -378 -4 -394 -25 -439 -30 -66 -105 -143 -172 -175 l-56 -28 -390
-5 c-418 -5 -421 -6 -444 -57 -7 -16 -11 -153 -11 -398 l0 -375 -950 0 -950 0
0 73 c0 165 -41 509 -86 730 -76 374 -187 703 -367 1082 -168 356 -216 520
-237 809 -39 552 172 1098 575 1489 399 389 966 586 1513 526z" stroke-width="1"/>
<path d="M2110 4605 c-177 -29 -355 -90 -500 -168 -801 -432 -1086 -1426 -634
-2211 225 -391 603 -666 1056 -767 145 -33 435 -38 593 -11 328 56 617 205
856 442 244 242 392 522 456 865 23 125 23 416 0 542 -126 674 -642 1190
-1305 1304 -134 22 -401 25 -522 4z m475 -200 c252 -41 469 -140 670 -307 242
-200 406 -473 477 -796 31 -139 31 -415 0 -554 -29 -132 -63 -231 -118 -341
-196 -390 -547 -661 -977 -754 -116 -25 -438 -25 -554 0 -564 121 -987 551
-1100 1114 -24 122 -24 394 0 516 97 483 429 878 882 1050 87 33 177 57 280
76 82 15 341 12 440 -4z" stroke-width="1"/>
<path d="M2258 4123 c-34 -27 -115 -100 -178 -163 -302 -300 -470 -635 -470
-935 0 -300 168 -635 470 -935 152 -152 230 -210 280 -210 50 0 129 58 280
210 269 268 430 559 462 833 40 334 -122 698 -462 1037 -63 63 -144 136 -178
163 -87 64 -117 64 -204 0z m219 -285 c376 -370 505 -715 392 -1052 -54 -160
-171 -345 -315 -494 l-93 -97 -1 172 0 172 78 93 c165 196 172 207 172 244 0
53 -45 94 -101 94 -40 0 -48 -5 -96 -56 l-52 -57 -3 283 -3 282 -28 24 c-41
35 -99 33 -138 -5 l-29 -29 0 -128 0 -128 -53 57 c-48 52 -56 57 -96 57 -56 0
-101 -41 -101 -94 0 -37 7 -48 172 -244 l78 -93 0 -322 0 -321 -61 59 c-84 83
-181 204 -240 302 -219 360 -195 678 79 1053 63 86 300 330 321 330 8 0 61
-46 118 -102z" stroke-width="1"/>
</g>
</svg>
