<?xml version="1.0" standalone="no"?>
<!DOCTYPE svg PUBLIC "-//W3C//DTD SVG 20010904//EN"
 "http://www.w3.org/TR/2001/REC-SVG-20010904/DTD/svg10.dtd">
<svg version="1.0" xmlns="http://www.w3.org/2000/svg"
 width="100pt" height="100pt" viewBox="0 0 512.000000 512.000000"
 preserveAspectRatio="xMidYMid meet">

<g transform="translate(0.000000,512.000000) scale(0.100000,-0.100000)"
fill="#f8f8f8" stroke="none">
<path d="M4090 5044 c-36 -7 -108 -35 -160 -60 -128 -64 -236 -170 -298 -294
-62 -126 -73 -179 -79 -386 l-6 -180 -101 100 c-553 548 -1399 608 -2038 146
-86 -62 -254 -230 -323 -322 l-57 -78 -427 0 c-470 0 -470 0 -534 -66 -67 -67
-62 27 -65 -1224 -2 -1134 -2 -1136 18 -1158 28 -30 82 -30 110 0 20 22 20 30
20 860 l0 838 313 0 312 0 2 -133 c5 -418 165 -791 468 -1092 466 -463 1166
-584 1764 -304 393 184 693 525 828 941 l36 108 333 0 334 0 -2 -996 -3 -996
-24 -19 c-21 -18 -42 -19 -261 -19 l-238 0 -4 203 c-4 222 -10 248 -75 309
-59 56 -72 58 -446 58 -320 0 -345 -1 -360 -18 -24 -27 -22 -85 4 -108 20 -18
43 -19 354 -22 322 -3 333 -3 351 -23 18 -20 19 -46 22 -408 2 -212 0 -401 -3
-419 -3 -18 -15 -42 -26 -53 -19 -19 -46 -19 -1484 -19 l-1466 0 -24 25 -25
24 0 409 c0 398 1 410 21 436 l20 26 994 2 c960 3 994 4 1014 22 27 25 29 86
3 109 -17 16 -103 17 -1026 17 -973 0 -1008 -1 -1044 -19 -21 -11 -52 -34 -70
-52 -53 -54 -62 -99 -62 -311 l0 -188 -244 0 -245 0 -20 26 c-20 25 -21 39
-21 268 0 230 -1 243 -20 264 -28 30 -82 30 -110 0 -21 -22 -21 -31 -18 -288
3 -288 4 -293 65 -354 60 -61 83 -66 360 -66 l251 0 4 -168 c3 -149 6 -171 25
-209 27 -50 86 -100 133 -113 22 -6 584 -10 1511 -10 l1475 0 55 28 c103 52
129 122 129 343 l0 129 250 0 c204 0 258 3 288 16 47 19 88 58 115 109 l22 40
3 1007 2 1007 159 3 159 3 38 30 c77 63 74 35 74 633 0 566 -1 572 -48 626
-23 25 -90 56 -124 56 l-28 0 0 188 c0 154 -4 203 -19 264 -79 308 -352 519
-666 517 -44 0 -109 -7 -145 -15z m333 -168 c148 -56 264 -172 320 -323 19
-51 22 -82 25 -260 l3 -203 -79 0 -80 0 -4 193 c-3 184 -4 194 -30 249 -34 74
-113 152 -186 186 -48 22 -71 26 -152 26 -83 1 -102 -2 -152 -26 -116 -54
-198 -161 -218 -284 -6 -32 -10 -123 -10 -201 l0 -143 -80 0 -80 0 0 148 c0
203 11 269 62 372 70 143 197 247 351 286 81 21 227 12 310 -20z m-82 -304
c42 -21 61 -40 87 -82 l32 -54 0 -173 0 -173 -226 0 -226 0 4 173 c3 154 6
176 26 214 59 112 191 154 303 95z m-1732 -67 c180 -35 371 -113 516 -211 90
-60 226 -175 259 -219 l26 -34 -25 -37 -25 -37 0 -550 c0 -536 1 -550 21 -586
11 -20 36 -48 56 -61 33 -23 48 -25 155 -28 65 -2 118 -7 118 -12 0 -20 -65
-191 -98 -255 -51 -102 -136 -226 -207 -303 l-62 -67 -21 42 c-62 121 -214
284 -347 370 -38 26 -74 50 -79 54 -5 5 17 34 49 66 171 171 257 400 242 646
-8 131 -27 198 -87 322 -109 221 -305 382 -545 447 -123 33 -319 30 -440 -6
-285 -86 -494 -291 -580 -568 -37 -118 -22 -168 49 -168 48 0 64 18 86 98 68
245 257 434 500 499 88 23 262 23 350 -1 291 -79 498 -333 517 -632 13 -214
-63 -404 -224 -554 -131 -123 -287 -184 -468 -183 -303 1 -555 179 -661 469
-15 42 -35 79 -46 85 -33 17 -79 6 -102 -24 l-20 -28 29 -85 c36 -108 108
-225 190 -311 35 -37 63 -68 62 -69 -1 -2 -36 -25 -77 -51 -133 -87 -276 -237
-347 -363 -15 -27 -31 -50 -35 -50 -12 0 -134 153 -187 235 -101 154 -173 339
-207 526 -22 125 -22 353 0 478 91 510 445 929 927 1099 81 28 238 66 319 76
73 9 338 -3 419 -19z m2356 -1090 l0 -520 -725 0 -725 0 -3 510 c-1 281 0 516
3 523 3 10 154 12 727 10 l723 -3 0 -520z m-4025 401 c0 -2 -15 -36 -34 -77
-41 -89 -81 -214 -97 -303 l-12 -66 -324 0 -323 0 0 199 c0 185 1 200 21 225
l20 26 375 0 c206 0 374 -2 374 -4z m1065 -1362 c101 -44 218 -67 340 -67 121
0 200 15 322 63 l77 29 69 -37 c150 -81 304 -233 385 -381 l33 -60 -78 -55
c-152 -108 -331 -184 -533 -227 -137 -30 -398 -32 -533 -6 -185 37 -380 116
-529 216 -108 72 -106 69 -63 143 72 123 176 236 285 311 34 24 157 95 166 97
1 0 28 -11 59 -26z" stroke-width="10"/>
<path d="M2051 3344 c-18 -23 -21 -41 -21 -119 0 -111 18 -145 75 -145 57 0
75 34 75 145 0 111 -18 145 -75 145 -24 0 -39 -7 -54 -26z"/>
<path d="M2530 3350 c-17 -17 -20 -33 -20 -125 0 -92 3 -108 20 -125 28 -28
75 -26 105 5 23 22 25 32 25 120 0 88 -2 98 -25 120 -30 31 -77 33 -105 5z"/>
<path d="M4184 3639 c-17 -19 -19 -38 -19 -166 0 -140 1 -145 24 -164 30 -25
76 -24 101 1 18 18 20 33 20 163 0 167 -7 187 -69 187 -26 0 -44 -7 -57 -21z"/>
<path d="M1331 783 c-109 -57 -105 -210 6 -264 159 -77 294 151 150 253 -41
29 -112 34 -156 11z" stroke-width="10"/>
<path d="M1961 783 c-108 -57 -105 -210 4 -263 23 -11 51 -20 63 -20 64 0 136
62 148 126 9 48 -19 118 -58 145 -42 30 -113 35 -157 12z" stroke-width="10"/>
<path d="M2594 786 c-123 -55 -105 -238 27 -277 78 -24 169 34 185 116 9 49
-19 119 -58 146 -38 27 -112 34 -154 15z" stroke-width="10"/>
<path d="M3212 780 c-100 -61 -95 -202 9 -258 129 -69 266 68 197 197 -41 76
-135 104 -206 61z" stroke-width="10"/>
</g>
</svg>
