<?xml version="1.0" standalone="no"?>
<!DOCTYPE svg PUBLIC "-//W3C//DTD SVG 20010904//EN"
 "http://www.w3.org/TR/2001/REC-SVG-20010904/DTD/svg10.dtd">
<svg version="1.0" xmlns="http://www.w3.org/2000/svg"
 width="100pt" height="100pt" viewBox="0 0 512.000000 512.000000"
 preserveAspectRatio="xMidYMid meet">

<g transform="translate(0.000000,512.000000) scale(0.100000,-0.100000)"
fill="#f8f8f8" stroke="none">
<path d="M2425 5059 c-245 -137 -318 -176 -505 -268 -411 -203 -850 -374
-1300 -507 -159 -46 -189 -58 -213 -85 l-28 -31 4 -731 c3 -618 6 -750 21
-847 80 -552 252 -994 552 -1421 353 -503 939 -967 1427 -1131 172 -58 297
-39 549 80 457 215 927 616 1232 1051 300 427 472 869 552 1421 15 97 18 229
21 847 l4 731 -28 31 c-24 27 -54 39 -213 85 -610 180 -1175 422 -1815 780
-55 31 -111 56 -125 56 -14 0 -75 -28 -135 -61z m318 -273 c543 -297 1090
-526 1685 -706 l102 -31 0 -527 c0 -290 -5 -601 -10 -692 -48 -772 -356 -1441
-906 -1969 -293 -282 -613 -495 -906 -605 -127 -47 -169 -47 -296 0 -293 110
-613 323 -906 605 -550 528 -858 1197 -906 1969 -5 91 -10 402 -10 692 l0 527
103 31 c186 56 519 171 682 235 336 132 760 332 1045 494 69 39 131 71 138 71
8 0 91 -42 185 -94z"/>
<path d="M1783 4253 c-29 -6 -70 -48 -76 -79 -7 -41 11 -92 40 -111 33 -22 92
-21 126 2 64 42 53 151 -17 180 -20 8 -39 14 -43 14 -4 -1 -18 -4 -30 -6z"/>
<path d="M1460 4121 c-14 -5 -97 -36 -185 -68 -88 -33 -218 -80 -289 -103 -76
-25 -139 -52 -152 -65 -31 -31 -36 -79 -32 -315 3 -176 6 -209 21 -231 32 -48
86 -61 138 -33 51 26 59 62 59 257 l0 173 73 23 c204 65 461 167 489 194 78
78 -14 204 -122 168z"/>
<path d="M3435 3557 c-22 -8 -58 -25 -80 -39 -22 -15 -287 -274 -590 -577
l-550 -551 -215 215 c-257 256 -279 270 -425 270 -75 0 -98 -4 -140 -25 -179
-87 -253 -288 -172 -465 24 -52 73 -105 385 -417 417 -416 413 -413 562 -413
169 0 114 -46 917 758 800 800 758 749 758 912 0 77 -4 98 -26 145 -34 71 -99
136 -169 169 -65 30 -189 39 -255 18z m152 -208 c66 -25 101 -93 83 -159 -8
-28 -159 -184 -702 -727 -628 -627 -697 -692 -732 -699 -31 -5 -49 -2 -81 15
-25 13 -176 157 -367 349 -343 344 -358 363 -341 431 10 46 51 90 94 101 76
21 92 9 364 -261 138 -136 263 -253 278 -258 16 -6 40 -8 55 -5 18 4 225 204
622 600 327 326 609 600 625 608 35 19 63 20 102 5z"/>
<path d="M3729 1650 c-9 -5 -47 -53 -85 -106 -136 -192 -294 -361 -487 -522
-101 -85 -121 -111 -119 -158 2 -46 16 -71 54 -90 51 -27 87 -12 205 85 251
205 593 605 593 693 0 41 -26 87 -56 98 -32 13 -84 12 -105 0z"/>
<path d="M2834 790 c-66 -27 -84 -117 -35 -172 78 -88 223 7 177 115 -22 55
-86 80 -142 57z"/>
</g>
</svg>
